<?xml version="1.0" standalone="no"?>
<!DOCTYPE svg PUBLIC "-//W3C//DTD SVG 20010904//EN"
 "http://www.w3.org/TR/2001/REC-SVG-20010904/DTD/svg10.dtd">
<svg version="1.0" xmlns="http://www.w3.org/2000/svg"
 width="5000.000000pt" height="5000.000000pt" viewBox="0 0 5000.000000 5000.000000"
 preserveAspectRatio="xMidYMid meet">

<g transform="translate(0.000000,5000.000000) scale(0.100000,-0.100000)"
fill="#000000" stroke="none">
<path d="M24840 43355 c-69 -20 -186 -74 -247 -117 -126 -86 -284 -264 -408
-459 -82 -128 -244 -455 -319 -646 -349 -884 -641 -2228 -866 -3988 -22 -170
-46 -368 -54 -440 -46 -402 -58 -512 -81 -735 -25 -245 -88 -940 -100 -1100
-3 -47 -8 -96 -10 -110 -2 -14 -7 -70 -10 -125 -3 -55 -8 -116 -10 -135 -4
-29 -36 -481 -60 -830 -25 -377 -61 -993 -71 -1215 -4 -82 -8 -153 -10 -156
-2 -3 -4 -55 -5 -117 -1 -99 -3 -113 -23 -130 -11 -10 -106 -77 -211 -149
-207 -142 -762 -523 -2030 -1393 -1280 -879 -1343 -923 -1985 -1363 -493 -339
-606 -413 -612 -399 -3 9 -22 107 -42 217 -231 1269 -564 1959 -958 1982 -389
24 -706 -542 -952 -1697 -105 -492 -207 -1183 -276 -1855 -12 -115 -25 -213
-28 -216 -4 -4 -115 -81 -247 -171 -262 -180 -754 -518 -1645 -1129 -316 -218
-885 -608 -1265 -869 -379 -260 -712 -488 -738 -507 -27 -19 -51 -33 -53 -31
-2 3 -22 94 -44 204 -205 1004 -467 1594 -775 1745 -65 32 -76 34 -170 34 -91
0 -106 -3 -166 -31 -365 -173 -667 -967 -883 -2324 -48 -299 -103 -704 -132
-975 l-17 -160 -216 -148 c-564 -388 -2256 -1549 -2846 -1954 -409 -281 -1126
-773 -2348 -1612 l-807 -555 0 -923 c0 -775 3 -923 14 -923 8 0 216 59 462
131 247 71 710 206 1029 299 319 93 958 279 1420 413 462 135 1274 371 1805
526 531 154 4041 1176 7800 2270 3759 1095 6835 1989 6836 1988 3 -3 12 -281
19 -587 3 -124 7 -292 10 -375 3 -82 7 -233 10 -335 3 -102 7 -246 10 -320 3
-74 7 -207 10 -295 3 -88 8 -221 10 -295 3 -74 10 -256 15 -405 5 -148 12
-313 15 -365 2 -52 7 -165 10 -250 3 -85 8 -189 10 -230 3 -41 7 -131 10 -200
10 -247 25 -567 30 -645 2 -44 7 -132 10 -195 8 -162 34 -661 40 -745 2 -38 7
-119 10 -180 4 -60 8 -130 10 -155 2 -25 7 -108 10 -185 4 -77 8 -147 10 -155
1 -8 6 -78 9 -155 4 -77 9 -151 11 -165 2 -14 7 -79 10 -145 3 -66 8 -138 10
-160 2 -22 7 -85 10 -140 3 -55 10 -158 15 -230 6 -71 12 -164 15 -205 3 -41
8 -100 10 -130 3 -30 7 -93 10 -140 3 -47 10 -137 15 -200 5 -63 12 -146 15
-185 8 -108 45 -563 50 -625 3 -30 19 -208 36 -395 35 -405 109 -1144 148
-1485 15 -135 28 -246 27 -246 -1 -1 -262 -181 -581 -400 -319 -218 -800 -549
-1070 -734 -269 -185 -980 -673 -1580 -1085 -599 -411 -1124 -771 -1165 -800
-41 -28 -356 -245 -700 -481 -1175 -806 -1315 -902 -1328 -914 -10 -9 -12
-203 -12 -930 0 -837 2 -920 16 -920 9 0 404 113 878 251 473 138 1093 318
1376 401 283 82 745 216 1025 298 3482 1014 3847 1120 3859 1120 6 0 20 -33
30 -73 41 -160 131 -463 196 -658 247 -746 517 -1222 771 -1359 60 -33 70 -35
154 -35 76 0 99 4 145 26 315 149 659 835 951 1903 31 112 59 196 66 196 6 0
458 -130 1005 -289 546 -159 1349 -393 1783 -519 435 -127 1587 -462 2561
-746 975 -284 1779 -516 1788 -516 14 0 16 84 16 919 l0 919 -38 30 c-20 15
-197 138 -392 272 -195 134 -425 291 -510 350 -85 59 -213 147 -285 196 -180
123 -2880 1977 -3490 2396 -274 189 -774 531 -1110 762 -335 230 -611 419
-612 420 -1 1 2 31 7 66 4 36 11 97 14 135 4 39 9 81 11 95 4 22 66 604 80
760 3 30 10 100 15 155 36 378 95 1032 115 1290 8 105 17 217 20 250 2 33 7
94 10 135 3 41 8 98 10 125 3 28 16 210 30 405 13 195 27 389 30 430 15 221
27 403 45 685 5 88 12 196 15 240 8 127 24 411 30 520 3 55 7 134 10 175 6 83
22 394 30 565 3 61 7 148 10 195 2 47 7 141 10 210 3 69 8 166 10 215 3 50 7
146 10 215 3 69 8 166 10 215 6 101 21 488 30 730 3 88 8 205 10 260 5 110 22
592 30 865 3 96 7 234 10 305 6 164 13 425 20 715 7 303 16 564 18 567 2 1
248 -69 547 -157 300 -87 970 -282 1490 -433 520 -152 3344 -974 6275 -1827
2932 -853 5809 -1691 6395 -1861 586 -171 1349 -393 1695 -494 347 -101 947
-276 1335 -389 388 -112 907 -264 1154 -335 246 -72 454 -131 462 -131 11 0
14 148 14 923 l0 923 -807 555 c-1222 839 -1939 1331 -2348 1612 -590 405
-2282 1566 -2846 1954 l-216 148 -17 160 c-30 272 -84 677 -132 975 -218 1361
-518 2151 -883 2324 -60 28 -75 31 -166 31 -94 0 -105 -2 -170 -34 -81 -39
-196 -148 -263 -248 -197 -292 -367 -790 -513 -1502 -21 -107 -41 -196 -43
-198 -2 -2 -61 36 -132 85 -71 49 -322 221 -559 384 -236 162 -731 502 -1100
755 -368 253 -1003 688 -1410 968 -407 279 -743 510 -747 514 -3 3 -16 101
-28 216 -53 519 -137 1122 -211 1524 -175 954 -396 1580 -655 1861 -202 217
-448 225 -653 20 -267 -266 -502 -916 -671 -1855 -17 -93 -33 -180 -35 -193
-6 -26 70 -75 -670 433 -706 484 -2408 1654 -2795 1919 -201 138 -483 332
-627 431 -144 99 -373 256 -507 348 -135 92 -248 172 -251 177 -10 16 -13 47
-19 205 -4 83 -9 188 -11 235 -3 47 -10 168 -15 270 -6 102 -13 221 -15 265
-21 347 -26 428 -30 485 -2 36 -7 106 -10 155 -3 50 -8 115 -10 145 -2 30 -7
96 -10 145 -3 50 -8 115 -10 145 -2 30 -7 91 -10 135 -10 147 -46 597 -65 820
-29 328 -41 459 -50 545 -5 52 -21 212 -35 355 -29 293 -117 1069 -130 1143
-2 15 -11 81 -19 147 -24 189 -65 492 -80 585 -8 47 -17 108 -21 135 -16 124
-109 675 -155 920 -208 1102 -441 1925 -710 2503 -235 507 -507 827 -792 934
-73 28 -97 31 -208 34 -90 3 -140 0 -180 -11z"/>
</g>
</svg>
